#!OML:ASF F:\VICON\USERDATA\INSTALL\rory3\rory3.ASF
:FULLY-SPECIFIED
:DEGREES
141
root 0.9152152787907084 17.89325223973591 40.6762159848684 2.0227394200388016 -0.1137245266814012 -0.3323540831735541
lfemur -24.930247521309667 1.9237409487730024 -20.65741342059734
ltibia 46.04016302221121
lfoot 4.369244247217082 -10.935671434971324
ltoes -6.552093006524298
rfemur -12.931725842261114 5.262133493995885 28.67828395892088
rtibia 54.80822720186314
rfoot -5.65281680556421 -5.380297117066119
rtoes 2.1317502161167137
lowerback 12.737676158632098 0.6026757082240678 1.8203804887188655
upperback -0.7646326260169762 3.021936555575071 1.6419134394952617
thorax -8.277969294131855 1.4438985468612127 -0.6817850094959002
lowerneck -19.696132711388106 -4.121057415605085 -1.787498303275173
upperneck 10.011050900161743 -5.564618948906302 3.2112223381089393
head 6.315071922344665 -2.440787623737065 0.7514935297400187
lclavicle 4.287488207731266e-15 5.75886165290891e-17
lhumerus -53.25656353049664 -11.611157832734467 96.58452506217583
lradius 109.76704513552416
lwrist 28.608079886822754
lhand -29.934525629536466 2.527610573346177
lfingers 7.125019999999998
lthumb -3.077226976546323 32.70917131027056
rclavicle 4.28752700038245e-15 5.761646213958064e-17
rhumerus -40.80322391688593 14.621669142016838 -98.33706174462203
rradius 105.46590083318453
rwrist -9.72033855475971
rhand -20.404131283153436 36.42812432299964
rfingers 7.125019999999998
rthumb 6.079361578492067 6.355461228428089
142
root 0.9722597752460591 17.98827048323063 43.842673370912806 2.285784875385167 0.49191081421509586 -0.029127197826169127
lfemur -25.77621099676881 1.7504140979634442 -20.96537206074092
ltibia 44.13069429149399
lfoot 6.021279564822475 -9.561026521067667
ltoes -6.57309738893775
rfemur -13.174408026715755 5.339819239157126 28.84477459055112
rtibia 55.871144956435465
rfoot -4.573954062905933 -5.169594002583271
rtoes 2.0137229742241507
lowerback 12.749291877885597 0.6785710465264594 1.9752254781477818
upperback -0.8003587307198999 3.0008903079347466 1.5656232753831798
thorax -8.333484258722539 1.3589379094313045 -0.951558597463432
lowerneck -19.770001190264026 -4.229095422529307 -1.8468190335532577
upperneck 9.840859947596627 -5.614995718176884 3.1973533713636897
head 6.2963858667936865 -2.4584394664312375 0.752188636148361
lclavicle 4.287488207731266e-15 5.75886165290891e-17
lhumerus -52.00801402206858 -11.149762394779975 96.75881289102135
lradius 109.87317988918203
lwrist 28.759167495863817
lhand -29.80213877581588 2.7475295892780656
lfingers 7.125019999999998
lthumb -3.016726887062002 32.75003604075709
rclavicle 4.28752700038245e-15 5.761646213958064e-17
rhumerus -40.51883142709359 14.7730790410815 -98.37414502414482
rradius 105.5653190608238
rwrist -9.626329529320191
rhand -20.41147866235439 36.39881406978354
rfingers 7.125019999999998
rthumb 6.06955983490091 6.3280707967625505
143
root 0.9595734526190407 17.984241394421616 42.27088147917492 2.2467376844648714 0.3250784830230249 -0.18344553003328112
lfemur -23.864883437296026 2.007648271134837 -20.703712045749064
ltibia 42.55929992434713
lfoot 6.3512618425802865 -9.4622701173236
ltoes -6.5754348811351635
rfemur -12.453383441035069 5.6406766186466655 29.02840642778328
rtibia 56.45530542438474
rfoot -3.3678996532192578 -5.077241659974221
rtoes 2.1802534880230753
lowerback 12.766302905808722 0.745269586659153 2.0800103136396264
upperback -0.8338810601033939 2.9512649188885627 1.4799924030712166
thorax -8.223337261969615 1.4270775824327615 -0.796352610034359
lowerneck -19.69897623935891 -4.20704752561503 -1.8084239548965773
upperneck 9.809961578548405 -5.612221950614055 3.210586177967421
head 6.293264848745601 -2.461972892457355 0.7569266589211763
lclavicle 4.287488207731266e-15 5.75886165290891e-17
lhumerus -52.85802180126006 -11.217505881464207 96.43161084378603
lradius 109.6619612025269
lwrist 28.85653472379632
lhand -29.85217196983968 2.7031173263711965
lfingers 7.125019999999998
lthumb -2.9745902597874627 32.74188696999383
rclavicle 4.28752700038245e-15 5.761646213958064e-17
rhumerus -40.59256598799001 14.825869062231654 -98.49886993807958
rradius 105.59140541759064
rwrist -9.57851959362183
rhand -20.446877150733744 36.34886408273057
rfingers 7.125019999999998
rthumb 6.043028400789891 6.289081454686356
144
root 0.9811860603807281 18.02328283065214 43.58432343181533 2.307654795736465 0.6427692906707294 -0.03881297558013119
lfemur -24.166670699925223 1.7369969534514857 -21.275625746316855
ltibia 41.47571213202469
lfoot 5.770677677016505 -10.499163172612404
ltoes -6.415018688554154
rfemur -11.252552886962155 5.777329881815521 29.46067222713199
rtibia 56.561556078299034
rfoot -2.9534918458052006 -5.238774673556536
rtoes 1.9494832182011275
lowerback 12.788898109402218 0.8006168941322975 2.1488531240970636
upperback -0.8571404613776976 2.9023836344169913 1.395585944533447
thorax -8.26830352332712 1.3539285664506173 -0.8169735666772584
lowerneck -19.77554380531586 -4.283512960934004 -1.8472308906581227
upperneck 9.862763001903009 -5.569413989008659 3.2476191267197043
head 6.314553748083653 -2.445960743831515 0.7695529943346908
lclavicle 4.287488207731266e-15 5.75886165290891e-17
lhumerus -52.58126382388909 -10.798300367995726 96.45089013621269
lradius 109.29411796485495
lwrist 28.921325224341906
lhand -29.861274745163403 2.667512932279996
lfingers 7.125019999999998
lthumb -3.024242431726893 32.782994120755745
rclavicle 4.28752700038245e-15 5.761646213958064e-17
rhumerus -40.542766036370935 14.96144621504939 -98.57754735104749
rradius 105.57127603131195
rwrist -9.539806521570991
rhand -20.418535618816986 36.345294936184786
rfingers 7.125019999999998
rthumb 6.107636550663193 6.357801137247313
145
root 0.9575369088649586 17.9837847941844 42.01750992211559 2.1275972410851036 0.4036517194656617 -0.23253292792702163
lfemur -21.01851204944989 2.178169898641045 -20.568820928276637
ltibia 40.482130902006574
lfoot 4.8433981076829795 -10.917600935934908
ltoes -6.352138174456175
rfemur -14.589950285002052 5.038657335192296 27.931187031985644
rtibia 56.5639636781754
rfoot -2.469246441835811 -5.123527656415454
rtoes 1.3026348326957453
lowerback 12.818997082658186 0.8518466896153429 2.1969043450905175
upperback -0.8794611950629427 2.823655075764048 1.2922965808917062
thorax -8.193240771929705 1.407106680644886 -0.5943593156856761
lowerneck -19.69164453183348 -4.193510151249959 -1.8165009019585092
upperneck 9.839387418539062 -5.57961467328435 3.241782015442995
head 6.321227835190227 -2.432186039601337 0.7761853954985409
lclavicle 4.287488207731266e-15 5.75886165290891e-17
lhumerus -53.38579325672781 -11.020383306174239 96.2882327503898
lradius 109.08340807521395
lwrist 28.816618546114377
lhand -29.74596125036225 2.743003660163498
lfingers 7.125019999999998
lthumb -3.1060814211732515 32.73554872775361
rclavicle 4.28752700038245e-15 5.761646213958064e-17
rhumerus -40.59937120141112 15.088136965621803 -98.68302184193831
rradius 105.57694566165024
rwrist -9.718655096260962
rhand -20.429869725902684 36.319931308498894
rfingers 7.125019999999998
rthumb 6.083845443692144 6.341789632797173
